<?xml version="1.0" encoding="UTF-8" standalone="no"?>
<!DOCTYPE svg PUBLIC "-//W3C//DTD SVG 1.0//EN" "http://www.w3.org/TR/2001/PR-SVG-20010719/DTD/svg10.dtd">
<svg width="50cm" height="37cm" viewBox="7 29 987 738" xmlns="http://www.w3.org/2000/svg" xmlns:xlink="http://www.w3.org/1999/xlink">
  <g>
    <rect style="fill: #ffffff" x="8" y="30" width="985" height="736"/>
    <rect style="fill: none; fill-opacity:0; stroke-width: 2; stroke: #000000" x="8" y="30" width="985" height="736"/>
    <text font-size="12.7998" style="fill: #000000;text-anchor:middle;font-family:sans-serif;font-style:normal;font-weight:normal" x="500.5" y="401.9">
      <tspan x="500.5" y="401.9"></tspan>
    </text>
  </g>
  <g>
    <ellipse style="fill: #ffffff" cx="397" cy="590" rx="6" ry="6"/>
    <ellipse style="fill: none; fill-opacity:0; stroke-width: 2; stroke: #0000ff" cx="397" cy="590" rx="6" ry="6"/>
    <line style="fill: none; fill-opacity:0; stroke-width: 2; stroke: #0000ff" x1="373" y1="602" x2="421" y2="602"/>
    <line style="fill: none; fill-opacity:0; stroke-width: 2; stroke: #0000ff" x1="397" y1="596" x2="397" y2="626"/>
    <line style="fill: none; fill-opacity:0; stroke-width: 2; stroke: #0000ff" x1="397" y1="626" x2="373" y2="652"/>
    <line style="fill: none; fill-opacity:0; stroke-width: 2; stroke: #0000ff" x1="397" y1="626" x2="421" y2="652"/>
    <text font-size="16.9333" style="fill: #000000;text-anchor:middle;font-family:sans-serif;font-style:normal;font-weight:normal" x="397" y="679.75">
      <tspan x="397" y="679.75">Resource Owner</tspan>
    </text>
  </g>
  <g>
    <rect style="fill: #add8e6" x="325" y="404" width="294" height="44"/>
    <rect style="fill: none; fill-opacity:0; stroke-width: 2; stroke: #000000" x="325" y="404" width="294" height="44"/>
    <text font-size="16.9333" style="fill: #000000;text-anchor:middle;font-family:sans-serif;font-style:normal;font-weight:normal" x="472" y="431.167">
      <tspan x="472" y="431.167">Browser</tspan>
    </text>
  </g>
  <g>
    <rect style="fill: #e6e6fa" x="41" y="173" width="211" height="72.35"/>
    <rect style="fill: none; fill-opacity:0; stroke-width: 2; stroke: #000000" x="41" y="173" width="211" height="72.35"/>
    <text font-size="16.9333" style="fill: #000000;text-anchor:middle;font-family:sans-serif;font-style:normal;font-weight:normal" x="146.5" y="214.342">
      <tspan x="146.5" y="214.342">Client App</tspan>
    </text>
  </g>
  <text font-size="16.9333" style="fill: #0000ff;text-anchor:start;font-family:sans-serif;font-style:normal;font-weight:normal" x="648" y="615.35">
    <tspan x="648" y="615.35">Resource Owner Own's the Resource</tspan>
    <tspan x="648" y="636.517">but direct access is not allowed.</tspan>
  </text>
  <text font-size="16.9333" style="fill: #0000ff;text-anchor:start;font-family:sans-serif;font-style:normal;font-weight:normal" x="23" y="586.85">
    <tspan x="23" y="586.85">Resource Owner grants </tspan>
    <tspan x="23" y="608.017">permission to Client App</tspan>
  </text>
  <text font-size="16.9333" style="fill: #0000ff;text-anchor:start;font-family:sans-serif;font-style:normal;font-weight:normal" x="307" y="103.35">
    <tspan x="307" y="103.35">Client App can access a </tspan>
    <tspan x="307" y="124.517">Resource on Behalf of </tspan>
    <tspan x="307" y="145.683">Resource Owner</tspan>
    <tspan x="307" y="166.85">via Resource Server</tspan>
  </text>
  <g>
    <path style="fill: none; fill-opacity:0; stroke-width: 2; stroke: #000000" d="M 125.636,255.48 A 281.247,281.247 0 0 0 327.874,621.36"/>
    <polygon style="fill: #000000" points="128.172,248.426 129.245,259.555 125.477,255.425 119.913,255.962 "/>
    <polygon style="fill: none; fill-opacity:0; stroke-width: 2; stroke: #000000" points="128.172,248.426 129.245,259.555 125.477,255.425 119.913,255.962 "/>
  </g>
  <g>
    <path style="fill: none; fill-opacity:0; stroke-width: 2; stroke: #000000" d="M 667.106,83.5413 A 459.912,459.912 0 0 0 182.464,171.997"/>
    <polygon style="fill: #000000" points="674.036,86.4068 662.874,87.0527 667.145,83.4458 666.822,77.865 "/>
    <polygon style="fill: none; fill-opacity:0; stroke-width: 2; stroke: #000000" points="674.036,86.4068 662.874,87.0527 667.145,83.4458 666.822,77.865 "/>
  </g>
  <g>
    <path style="fill: none; fill-opacity:0; stroke-width: 2; stroke: #000000" d="M 436.77,571.011 A 301.656,301.656 0 0 0 470.605,458.691"/>
    <polygon style="fill: #000000" points="471.246,451.222 475.589,461.524 470.761,458.706 465.61,460.878 "/>
    <polygon style="fill: none; fill-opacity:0; stroke-width: 2; stroke: #000000" points="471.246,451.222 475.589,461.524 470.761,458.706 465.61,460.878 "/>
  </g>
  <g>
    <path style="fill: none; fill-opacity:0; stroke-width: 2; stroke: #000000" d="M 163.341,255.246 A 298.261,298.261 0 0 0 324.373,407.499"/>
    <polygon style="fill: #000000" points="160.275,248.405 168.776,255.668 163.197,255.313 159.566,259.563 "/>
    <polygon style="fill: none; fill-opacity:0; stroke-width: 2; stroke: #000000" points="160.275,248.405 168.776,255.668 163.197,255.313 159.566,259.563 "/>
  </g>
  <text font-size="16.9331" style="fill: #0000ff;text-anchor:start;font-family:sans-serif;font-style:normal;font-weight:normal" x="319" y="346">
    <tspan x="319" y="346">Resource Owner is notified about the</tspan>
    <tspan x="319" y="367.167">authorization exchange workflow.</tspan>
  </text>
  <text font-size="12.7998" style="fill: #000000;text-anchor:start;font-family:sans-serif;font-style:normal;font-weight:normal" x="500.5" y="398">
    <tspan x="500.5" y="398"></tspan>
  </text>
  <text font-size="12.7998" style="fill: #000000;text-anchor:start;font-family:sans-serif;font-style:normal;font-weight:normal" x="500.5" y="398">
    <tspan x="500.5" y="398"></tspan>
  </text>
  <text font-size="22.5774" style="fill: #ff0000;text-anchor:start;font-family:sans-serif;font-style:normal;font-weight:normal" x="416" y="739">
    <tspan x="416" y="739">OAuth2.0 Actors</tspan>
  </text>
  <g>
    <rect style="fill: #e6e6fa" x="677.075" y="56" width="276.925" height="249"/>
    <rect style="fill: none; fill-opacity:0; stroke-width: 2; stroke: #000000" x="677.075" y="56" width="276.925" height="249"/>
    <text font-size="16.9331" style="fill: #000000;text-anchor:middle;font-family:sans-serif;font-style:normal;font-weight:normal" x="815.537" y="101">
      <tspan x="815.537" y="101">Resource Server</tspan>
      <tspan x="815.537" y="122.167">or</tspan>
      <tspan x="815.537" y="143.333">API Server</tspan>
      <tspan x="815.537" y="164.5"></tspan>
      <tspan x="815.537" y="185.667"></tspan>
      <tspan x="815.537" y="206.833"></tspan>
      <tspan x="815.537" y="228"></tspan>
      <tspan x="815.537" y="249.167"></tspan>
      <tspan x="815.537" y="270.333"></tspan>
    </text>
  </g>
  <g>
    <path style="fill: #bfbfbf" d="M 702 222.833 C 748.2,213.958 771.3,211 817.5,211 C 863.7,211 886.8,213.958 933,222.833 L 933,270.167 C 886.8,279.042 863.7,282 817.5,282 C 771.3,282 748.2,279.042 702,270.167 L 702,222.833z"/>
    <path style="fill: none; fill-opacity:0; stroke-width: 2; stroke: #000000" d="M 702 222.833 C 748.2,213.958 771.3,211 817.5,211 C 863.7,211 886.8,213.958 933,222.833 L 933,270.167 C 886.8,279.042 863.7,282 817.5,282 C 771.3,282 748.2,279.042 702,270.167 L 702,222.833"/>
    <path style="fill: none; fill-opacity:0; stroke-width: 2; stroke: #000000" d="M 702 222.833 C 748.2,231.708 771.3,234.667 817.5,234.667 C 863.7,234.667 886.8,231.708 933,222.833"/>
    <text font-size="16.9333" style="fill: #000000;text-anchor:middle;font-family:sans-serif;font-style:normal;font-weight:normal" x="817.5" y="257.708">
      <tspan x="817.5" y="257.708">Resource</tspan>
    </text>
  </g>
  <g>
    <path style="fill: none; fill-opacity:0; stroke-width: 2; stroke: #000000" d="M 422,628.583 A 328.069,328.069 0 0 0 823.078,292.683"/>
    <polygon style="fill: #000000" points="822.631,285.199 828.404,294.774 823.222,292.676 818.435,295.562 "/>
    <polygon style="fill: none; fill-opacity:0; stroke-width: 2; stroke: #000000" points="822.631,285.199 828.404,294.774 823.222,292.676 818.435,295.562 "/>
  </g>
  <g>
    <path style="fill: none; fill-opacity:0; stroke-width: 2; stroke: #000000" d="M 169.217,245.701 A 372.905,372.905 0 0 0 718.529,312.353"/>
    <polygon style="fill: #000000" points="724.145,307.384 720.145,317.825 718.613,312.449 713.392,310.449 "/>
    <polygon style="fill: none; fill-opacity:0; stroke-width: 2; stroke: #000000" points="724.145,307.384 720.145,317.825 718.613,312.449 713.392,310.449 "/>
  </g>
</svg>
